<svg width="657" height="135" viewBox="0 0 657 135" fill="none" xmlns="http://www.w3.org/2000/svg">
<g clip-path="url(#clip0_196_687)">
<rect x="6" y="9" width="155" height="117" fill="white"/>
<rect width="496" height="135" transform="translate(161)" fill="#1E1E1E"/>
<path d="M637.999 101.762H603.574V33.2378H637.999V47.2367H617.573V60.4731H637.999V74.472H617.573V87.7084H637.999V101.762Z" fill="white"/>
<path d="M569.911 47.2367V60.4731H583.147V47.2367H569.911ZM569.911 101.762H555.912V33.2378H590.337V40.0466H597.146V67.6632H590.337V74.0907H597.146V101.762H583.147V74.472H569.911V101.762ZM590.337 33.2378H597.146V40.0466H590.337V33.2378Z" fill="white"/>
<path d="M522.249 87.7084H535.485V47.2367H522.249V87.7084ZM515.059 101.762V94.8985H508.25V40.0466H515.059V33.2378H542.675V40.0466H549.484V94.8985H542.675V101.762H515.059ZM508.631 33.4557H515.059V40.0466H508.631V33.4557ZM542.675 33.2378H549.484V40.0466H542.675V33.2378ZM542.675 94.8985H549.484V101.544H542.675V94.8985ZM508.25 94.8985H515.059V101.762H508.25V94.8985Z" fill="white"/>
<path d="M488.205 101.762H474.206V47.2367H460.588V33.2378H501.823V47.2367H488.205V101.762Z" fill="white"/>
<path d="M426.925 47.2367V60.4731H440.162V47.2367H426.925ZM426.925 101.762H412.927V33.2378H454.161V101.762H440.162V74.472H426.925V101.762Z" fill="white"/>
<path d="M379.264 47.2367V60.4731H385.691V47.2367H379.264ZM379.264 87.7084H392.5V74.472H379.264V87.7084ZM365.265 101.762V33.2378H399.69V67.2819H406.499V101.762H365.265Z" fill="white"/>
<path d="M304.367 101.762H290.368V33.2378H358.837V101.762H344.838V47.2367H331.602V101.762H317.603V47.2367H304.367V101.762Z" fill="white"/>
<path d="M283.94 101.762H269.941V33.2378H283.94V101.762Z" fill="white"/>
<path d="M236.278 87.7084H249.515V47.2367H236.278V87.7084ZM229.088 101.762V94.8985H222.28V40.0466H229.088V33.2378H256.705V40.0466H263.514V94.8985H256.705V101.762H229.088ZM222.661 33.4557H229.088V40.0466H222.661V33.4557ZM256.705 33.2378H263.514V40.0466H256.705V33.2378ZM256.705 94.8985H263.514V101.544H256.705V94.8985ZM222.28 94.8985H229.088V101.762H222.28V94.8985Z" fill="white"/>
<path d="M181.426 101.762V94.8985H174.618V40.0466H181.426V33.2378H209.043V40.0466H215.852V60.8544H201.853V47.2367H188.617V87.7084H201.853V74.0907H215.852V94.8985H209.043V101.762H181.426ZM174.999 33.4557H181.426V40.0466H174.999V33.4557ZM174.618 94.8985H181.426V101.762H174.618V94.8985ZM209.043 94.7351H215.852V101.544H209.043V94.7351ZM209.043 33.4557H215.852V40.0466H209.043V33.4557Z" fill="white"/>
<path d="M38.5206 69.1873H30.6411V30.6399H50.0181V38.5149H38.5206V45.9608H50.0181V53.8358H38.5206V69.1873Z" fill="#1E1E1E"/>
<path d="M61.516 61.2816H68.9663V38.5148H61.516V61.2816ZM57.4689 69.1872V65.3264H53.6364V34.4701H57.4689V30.6398H73.0134V34.4701H76.8459V65.3264H73.0134V69.1872H57.4689ZM53.851 30.7624H57.4689V34.4701H53.851V30.7624ZM73.0134 30.6398L76.8459 30.6397V34.4701H73.0134V30.6398ZM73.0134 65.3264H76.8459V69.0646H73.0134V65.3264ZM53.6364 65.3264H57.4689V69.1872L53.6364 69.1871V65.3264Z" fill="#1E1E1E"/>
<path d="M99.8408 69.1873H80.4638V61.2817H95.7937V53.8357H84.2962V50.0055H80.4638V34.4701H84.2962V30.6399H103.673V38.5148H88.3433V45.9608H99.8408V49.791H103.673V65.3264H99.8408V69.1873ZM80.6784 30.7624H84.2962V34.4701H80.6784V30.7624ZM80.4638 50.0055H84.2962V53.8357H80.4638L80.4638 50.0055ZM99.8408 45.9608H103.673L103.673 49.791H99.8408V45.9608ZM99.8408 65.3264H103.673L103.673 69.0647H99.8408L99.8408 65.3264Z" fill="#1E1E1E"/>
<path d="M126.668 69.1873H107.291V61.2817H122.621V53.8357H111.124V50.0055H107.291V34.4701H111.124V30.6399H130.501V38.5148H115.171V45.9608H126.668V49.791H130.501V65.3264H126.668V69.1873ZM107.506 30.7624H111.124V34.4701H107.506V30.7624ZM107.291 50.0055H111.124V53.8357H107.291L107.291 50.0055ZM126.668 45.9608H130.501L130.501 49.791H126.668V45.9608ZM126.668 65.3264H130.501L130.501 69.0647H126.668L126.668 65.3264Z" fill="#1E1E1E"/>
<path d="M33.4094 104.402V101.607H30.6397V76.4987H36.3341V98.6794H41.7183V76.4987H47.4127V101.607H44.6431V104.402H33.4094ZM30.6397 101.607H33.4094V104.402H30.6397V101.607ZM44.6431 101.607H47.4127V104.313H44.6431V101.607Z" fill="#1E1E1E"/>
<path d="M55.7217 104.402H50.0273V76.4988H66.8003V104.402H61.1059V82.1992H55.7217V104.402Z" fill="#1E1E1E"/>
<path d="M75.1093 104.402H69.4149V76.4988H75.1093V104.402Z" fill="#1E1E1E"/>
<path d="M88.9576 104.402H83.2632V82.1992H77.7239V76.4988H94.4969V82.1992H88.9576V104.402Z" fill="#1E1E1E"/>
<path d="M111.115 104.402H97.1115V76.4988H111.115V82.1992H102.806V87.5891H111.115V93.2896H102.806V98.6795H111.115V104.402Z" fill="#1E1E1E"/>
<path d="M119.424 98.6795H124.808V82.1992H119.424V98.6795ZM113.729 104.402V76.4988H127.733V79.2714H130.502V101.607H127.733V104.402H113.729Z" fill="#1E1E1E"/>
<path fill-rule="evenodd" clip-rule="evenodd" d="M0 0V135.042H161.142V0H0ZM147.525 121.424V13.6176H13.6176V121.424H147.525Z" fill="#1E1E1E"/>
</g>
<defs>
<clipPath id="clip0_196_687">
<rect width="657" height="135" fill="white"/>
</clipPath>
</defs>
</svg>
